<?xml version="1.0" encoding="utf-8"?>
<!-- Generator: Adobe Illustrator 23.0.1, SVG Export Plug-In . SVG Version: 6.00 Build 0)  -->
<svg version="1.1" id="Layer_1" xmlns="http://www.w3.org/2000/svg" xmlns:xlink="http://www.w3.org/1999/xlink" x="0px" y="0px"
	 viewBox="0 0 27 34" style="enable-background:new 0 0 27 34;" xml:space="preserve">
<style type="text/css">
	.st0{fill:#FFFFFF;}
	.st1{fill:#808080;}
</style>
<path class="st0" d="M24.74,2.25h-7.87V0h7.87V2.25z M26.68,13.49c-0.5,1.46-2.28,3.37-5.74,3.37s-6.25-1.94-6.25-6.38
	c0-4.4,2.61-6.66,6.15-6.66c3.47,0,5.58,2,6.05,4.98c0.09,0.57,0.12,1.34,0.11,2.41h-9.03c0.15,3.61,3.91,3.72,5.16,2.28
	C23.12,13.49,26.68,13.49,26.68,13.49z M18.04,8.99h5.58c-0.11-1.74-1.28-2.5-2.79-2.5C19.19,6.5,18.27,7.37,18.04,8.99z
	 M7.27,16.85H0V0.03h7.82c6.16,0.09,6.27,6.12,3.06,7.77C14.77,9.2,14.9,16.85,7.27,16.85z M3.37,6.75H7.4
	c2.82,0,3.27-3.37-0.35-3.37H3.37V6.75z M7.19,10.12H3.37v3.39h3.76C10.57,13.51,10.36,10.12,7.19,10.12z"/>
<path class="st1" d="M24.74,19.38h-7.87v-2.25h7.87V19.38z M26.68,30.63C26.18,32.08,24.4,34,20.94,34s-6.25-1.94-6.25-6.38
	c0-4.4,2.61-6.66,6.15-6.66c3.47,0,5.58,2,6.05,4.98c0.09,0.57,0.12,1.34,0.11,2.41h-9.03c0.15,3.61,3.91,3.72,5.16,2.28
	C23.12,30.63,26.68,30.63,26.68,30.63z M18.04,26.13h5.58c-0.11-1.74-1.28-2.5-2.79-2.5C19.19,23.64,18.27,24.5,18.04,26.13z
	 M7.27,33.99H0V17.16h7.82c6.16,0.09,6.27,6.12,3.06,7.77C14.77,26.34,14.9,33.99,7.27,33.99z M3.37,23.88H7.4
	c2.82,0,3.27-3.37-0.35-3.37H3.37V23.88z M7.19,27.25H3.37v3.39h3.76C10.57,30.65,10.36,27.25,7.19,27.25z"/>
</svg>
