<?xml version="1.0" encoding="utf-8"?>
<!-- Generator: Adobe Illustrator 23.0.1, SVG Export Plug-In . SVG Version: 6.00 Build 0)  -->
<svg version="1.1" id="Layer_1" xmlns="http://www.w3.org/2000/svg" xmlns:xlink="http://www.w3.org/1999/xlink" x="0px" y="0px"
	 viewBox="0 0 40 25" style="enable-background:new 0 0 40 25;" xml:space="preserve">
<style type="text/css">
	.st0{fill:#FFFFFF;}
</style>
<path class="st0" d="M36.67,3.33H25V0h11.67V3.33z M39.54,20c-0.74,2.16-3.38,5-8.5,5c-5.12,0-9.27-2.88-9.27-9.46
	c0-6.52,3.87-9.87,9.11-9.87c5.14,0,8.27,2.97,8.96,7.38c0.13,0.84,0.18,1.98,0.16,3.57H26.62c0.22,5.35,5.8,5.52,7.65,3.38
	C34.26,20,39.54,20,39.54,20z M26.73,13.33h8.27c-0.17-2.58-1.89-3.7-4.13-3.7C28.44,9.64,27.08,10.92,26.73,13.33z M10.78,24.98H0
	V0.04h11.59c9.13,0.13,9.3,9.07,4.53,11.51C21.89,13.64,22.08,24.98,10.78,24.98z M5,10h5.97c4.18,0,4.84-5-0.52-5H5C5,5,5,10,5,10z
	 M10.65,15H5v5.03h5.57C15.66,20.03,15.35,15,10.65,15z"/>
</svg>
