<?xml version="1.0" encoding="utf-8"?>
<!-- Generator: Adobe Illustrator 23.0.1, SVG Export Plug-In . SVG Version: 6.00 Build 0)  -->
<svg version="1.1" id="Layer_1" xmlns="http://www.w3.org/2000/svg" xmlns:xlink="http://www.w3.org/1999/xlink" x="0px" y="0px"
	 viewBox="0 0 8 32" style="enable-background:new 0 0 8 32;" xml:space="preserve">
<style type="text/css">
	.st0{fill:#FFFFFF;}
	.st1{fill:#808080;}
</style>
<path class="st0" d="M5.32,5.24V3.86c0-0.21,0.01-0.37,0.03-0.48c0.02-0.11,0.07-0.23,0.14-0.34c0.07-0.11,0.19-0.19,0.35-0.23
	C6.01,2.78,6.23,2.76,6.5,2.76h1.48V0H5.61C4.25,0,3.26,0.3,2.67,0.91c-0.6,0.6-0.9,1.5-0.9,2.67v1.66H0V8h1.77v8h3.55V8h2.36
	L8,5.24H5.32z"/>
<path class="st1" d="M5.32,21.25v-1.38c0-0.21,0.01-0.37,0.03-0.48c0.02-0.11,0.07-0.23,0.14-0.34c0.07-0.11,0.19-0.19,0.35-0.23
	c0.16-0.04,0.38-0.06,0.65-0.06h1.48v-2.76H5.61c-1.37,0-2.35,0.3-2.95,0.91c-0.6,0.6-0.9,1.5-0.9,2.67v1.66H0v2.76h1.77v8h3.55v-8
	h2.36L8,21.25H5.32z"/>
</svg>
