<?xml version="1.0" encoding="utf-8"?>
<!-- Generator: Adobe Illustrator 23.0.1, SVG Export Plug-In . SVG Version: 6.00 Build 0)  -->
<svg version="1.1" id="Layer_1" xmlns="http://www.w3.org/2000/svg" xmlns:xlink="http://www.w3.org/1999/xlink" x="0px" y="0px"
	 viewBox="0 0 46 46" style="enable-background:new 0 0 46 46;" xml:space="preserve">
<style type="text/css">
	.st0{fill:none;}
	.st1{fill:#6DCFF6;}
</style>
<rect x="-21.51" y="21.17" transform="matrix(-1 -1.224647e-16 1.224647e-16 -1 -23.0173 66.3348)" class="st0" width="20" height="24"/>
<g>
	<path class="st1" d="M23,1c12.13,0,22,9.87,22,22s-9.87,22-22,22S1,35.13,1,23S10.87,1,23,1 M23,0C10.3,0,0,10.3,0,23
		s10.3,23,23,23s23-10.3,23-23S35.7,0,23,0L23,0z"/>
	<g>
		<path class="st1" d="M35,20l-12-7l-12,7l2.57,1.5L11,23l12,7l12-7l-2.57-1.5L35,20z M33.02,23l-1.58,0.92l0,0L23,28.84l-8.44-4.92
			l0,0L12.98,23l1.58-0.92L23,27l8.44-4.92L33.02,23z M30.45,21.5L23,25.84l-7.45-4.34l-0.99-0.58L12.98,20L23,14.16L33.02,20
			l-1.58,0.92L30.45,21.5z"/>
		<polygon class="st1" points="32.43,25.5 23,31 13.57,25.5 12.71,25 11,26 23,33 35,26 33.29,25 		"/>
	</g>
</g>
</svg>
