<?xml version="1.0" encoding="utf-8"?>
<!-- Generator: Adobe Illustrator 23.0.1, SVG Export Plug-In . SVG Version: 6.00 Build 0)  -->
<svg version="1.1" id="Layer_1" xmlns="http://www.w3.org/2000/svg" xmlns:xlink="http://www.w3.org/1999/xlink" x="0px" y="0px"
	 viewBox="0 0 46 46" style="enable-background:new 0 0 46 46;" xml:space="preserve">
<style type="text/css">
	.st0{fill:#6DCFF6;}
</style>
<g>
	<path class="st0" d="M23,1c12.13,0,22,9.87,22,22s-9.87,22-22,22S1,35.13,1,23S10.87,1,23,1 M23,0C10.3,0,0,10.3,0,23
		s10.3,23,23,23s23-10.3,23-23S35.7,0,23,0L23,0z"/>
	<g>
		<polygon class="st0" points="30.5,14 30.5,12 15.5,12 15.5,14 13.5,14 13.5,17 32.5,17 32.5,14 		"/>
	</g>
	<g>
		<path class="st0" d="M15.5,19l2,15h11l2-15H15.5z M23,28.18c-1.66,0-3-1.34-3-3s1.34-3,3-3s3,1.34,3,3S24.66,28.18,23,28.18z"/>
	</g>
</g>
</svg>
