<?xml version="1.0" encoding="utf-8"?>
<!-- Generator: Adobe Illustrator 23.0.1, SVG Export Plug-In . SVG Version: 6.00 Build 0)  -->
<svg version="1.1" id="Layer_1" xmlns="http://www.w3.org/2000/svg" xmlns:xlink="http://www.w3.org/1999/xlink" x="0px" y="0px"
	 viewBox="0 0 46 46" style="enable-background:new 0 0 46 46;" xml:space="preserve">
<style type="text/css">
	.st0{fill:#6DCFF6;}
</style>
<g>
	<path class="st0" d="M23,1c12.13,0,22,9.87,22,22s-9.87,22-22,22S1,35.13,1,23S10.87,1,23,1 M23,0C10.3,0,0,10.3,0,23
		s10.3,23,23,23s23-10.3,23-23S35.7,0,23,0L23,0z"/>
</g>
<path class="st0" d="M23,9.82c-5.25,0-9.5,4.25-9.5,9.5c0,8.18,9.5,16.86,9.5,16.86s9.5-8.41,9.5-16.86
	C32.5,14.08,28.25,9.82,23,9.82z M23.02,23.57c-2.38,0-4.31-1.93-4.31-4.31s1.93-4.31,4.31-4.31c2.38,0,4.31,1.93,4.31,4.31
	S25.4,23.57,23.02,23.57z"/>
</svg>
