<?xml version="1.0" encoding="utf-8"?>
<!-- Generator: Adobe Illustrator 23.0.1, SVG Export Plug-In . SVG Version: 6.00 Build 0)  -->
<svg version="1.1" id="Layer_1" xmlns="http://www.w3.org/2000/svg" xmlns:xlink="http://www.w3.org/1999/xlink" x="0px" y="0px"
	 viewBox="0 0 325 113.8" style="enable-background:new 0 0 325 113.8;" xml:space="preserve">
<style type="text/css">
	.st0{fill:#383838;}
</style>
<g id="XMLID_310_">
	<path id="XMLID_237_" class="st0" d="M130.42,73.98L99.9,56.36l31.08-54.15l0,0c0.08-0.16,0.16-0.32,0.16-0.4c0-0.08,0-0.08,0-0.16
		c0-0.08,0-0.16,0-0.16c0-0.08,0-0.08,0-0.16c0-0.08,0-0.08,0-0.16c0-0.08-0.08-0.24-0.08-0.32s0-0.08-0.08-0.16
		c-0.08-0.16-0.16-0.24-0.24-0.4l0,0l0,0c-0.08-0.08-0.16-0.16-0.32-0.24l-0.48-0.32c-0.24-0.16-0.48-0.24-0.8-0.24l0,0L1.6-0.76
		c-0.72,0-1.36,0.48-1.52,1.2C0.08,0.6,0,0.76,0,0.84V74.7c0,0.56,0.32,1.12,0.8,1.36l64.01,37.49c0.24,0.16,0.56,0.24,0.8,0.24
		c0.24,0,0.56-0.08,0.8-0.24c0.08-0.08,0.16-0.08,0.24-0.16c0.08,0,0.16-0.08,0.24-0.08l63.53-36.69c0.48-0.32,0.8-0.8,0.8-1.36
		S130.9,74.3,130.42,73.98z M97.09,54.76L68.73,38.42l42.22-24.35l14.26-8.25L97.09,54.76z M124.09,2.77l-21.95,12.66L65.53,36.57
		L7.45,2.53L124.09,2.77z M3.12,3.65l60.8,35.65v70.26L3.12,73.9V3.65z M67.13,41.22l28.36,16.34l-28.36,49.35V41.22z M70.42,107.71
		l27.88-48.55l28.12,16.18L70.42,107.71z"/>
	<g id="XMLID_188_">
		<path id="XMLID_235_" class="st0" d="M181.21,0.2v29.32h-2.56V14.06c0-3.12,0.08-5.69,0.24-8.25l-0.16-0.08
			c-0.72,2.08-1.92,4.89-3.04,7.69l-3.6,9.21h-2.56l-3.6-9.21c-1.12-2.8-2.24-5.61-3.04-7.69l-0.16,0.08
			c0.16,2.56,0.24,5.21,0.24,8.25v15.46h-2.56V0.2h2.72l5.21,12.66c0.72,1.92,1.76,4.89,2.32,6.57h0.16c0.56-1.6,1.6-4.65,2.32-6.57
			l5.21-12.66L181.21,0.2L181.21,0.2z"/>
		<path id="XMLID_232_" class="st0" d="M200.35,14.3v15.22h-2.16l-0.24-2.08c-1.04,1.44-2.64,2.56-5.05,2.56
			c-4.01,0-6.97-2.48-6.97-6.73s2.72-6.57,7.53-6.57h4.33v-2.32c0-3.2-1.52-4.97-4.33-4.97c-2.48,0-4.25,1.44-4.41,3.85h-2.48
			c0.16-3.77,2.88-6.25,6.97-6.25C197.79,7.01,200.35,9.82,200.35,14.3z M197.87,23.35v-4.33h-4.41c-3.2,0-4.97,1.52-4.97,4.33
			c0,2.88,2,4.25,4.81,4.25C196.11,27.6,197.87,25.84,197.87,23.35z"/>
		<path id="XMLID_229_" class="st0" d="M205.88,7.57h2.48v12.58c0,1.6,0.08,3.28-0.08,4.97l0.08,0.08c0.4-0.88,1.04-2.4,1.44-3.28
			l7.05-14.34h2.56v21.95h-2.48V17.67c0-2.32,0.08-4.09,0.16-5.85l-0.08-0.08c-0.32,0.96-1.04,2.48-1.76,4.01l-6.81,13.78h-2.56
			V7.57L205.88,7.57z M207.96-0.76h2.16c0.16,1.84,0.88,2.72,2.56,2.72s2.4-0.88,2.56-2.72h2.16c-0.16,3.12-1.84,4.89-4.73,4.89
			C209.8,4.13,208.04,2.37,207.96-0.76z"/>
		<path id="XMLID_227_" class="st0" d="M224.38,22.07v-7.21c0-5.05,2.8-7.85,7.05-7.85c4.33,0,7.13,2.8,7.21,7.85h-2.48
			c-0.16-3.68-1.76-5.37-4.73-5.37c-2.8,0-4.49,1.68-4.49,5.37v7.21c0,3.68,1.68,5.37,4.49,5.37c2.96,0,4.65-1.68,4.81-5.37h2.48
			c-0.16,5.05-2.96,7.85-7.29,7.85C227.19,29.92,224.38,27.12,224.38,22.07z"/>
		<path id="XMLID_225_" class="st0" d="M254.1,9.82h-5.45v19.71h-2.48V9.82h-5.45V7.49h13.38V9.82L254.1,9.82z"/>
		<path id="XMLID_222_" class="st0" d="M270.61,22.79c-0.32,4.57-3.04,7.13-7.69,7.13c-4.25,0-7.05-2.8-7.05-7.85v-7.21
			c0-5.05,2.88-7.85,7.13-7.85c4.41,0,7.29,2.8,7.29,7.85v4.89h-11.94v2.4c0,3.68,1.76,5.37,4.65,5.37c3.2,0,4.81-1.52,5.13-4.73
			L270.61,22.79L270.61,22.79z M258.43,14.86v2.56h9.45v-2.56c0-3.68-1.76-5.37-4.81-5.37C260.19,9.5,258.43,11.18,258.43,14.86z"/>
		<path id="XMLID_219_" class="st0" d="M289.67,15.42v6.33c0,5.45-2.56,8.25-6.81,8.25c-2,0-3.93-0.8-5.13-2.48v9.53h-2.4V7.57h2
			l0.32,2.08c1.2-1.6,3.04-2.56,5.21-2.56C286.79,7.01,289.67,9.9,289.67,15.42z M287.11,15.42c0-4.33-1.76-6.09-4.89-6.09
			c-2.48,0-4.57,1.92-4.57,6.01v6.41c0,3.52,1.76,5.93,4.57,5.93c3.2,0,4.89-1.76,4.89-5.93V15.42z"/>
		<path id="XMLID_217_" class="st0" d="M307.94,7.57v21.95h-2.48V19.35h-8.33v10.17h-2.48V7.57h2.48v9.45h8.33V7.57H307.94
			L307.94,7.57z"/>
		<path id="XMLID_214_" class="st0" d="M325,7.57v21.95h-2.48v-8.01h-3.36l-5.05,8.01h-2.96l5.29-8.17
			c-2.72-0.56-4.57-3.2-4.57-6.81c0-4.17,2.72-6.97,6.97-6.97L325,7.57L325,7.57z M322.52,9.9h-3.6c-2.8,0-4.41,1.68-4.41,4.57
			c0,2.96,1.44,4.65,4.17,4.65h3.85V9.9z"/>
		<path id="XMLID_212_" class="st0" d="M165.02,55.32l-2.08,2.88v11.46h-2.56V40.34h2.56v14.02l2.4-3.44l7.53-10.57h3.2l-9.37,12.74
			l10.49,16.5h-3.12L165.02,55.32z"/>
		<path id="XMLID_209_" class="st0" d="M193.78,55.48v6.33c0,5.45-2.56,8.25-6.81,8.25c-2,0-3.93-0.8-5.13-2.48v9.53h-2.4V47.63h2
			l0.32,2.08c1.2-1.6,3.04-2.56,5.21-2.56C190.9,47.07,193.78,49.95,193.78,55.48z M191.22,55.48c0-4.33-1.76-6.09-4.89-6.09
			c-2.48,0-4.57,1.92-4.57,6.01v6.41c0,3.52,1.76,5.93,4.57,5.93c3.2,0,4.89-1.76,4.89-5.93V55.48z"/>
		<path id="XMLID_206_" class="st0" d="M212.93,62.85c-0.32,4.57-3.04,7.13-7.69,7.13c-4.25,0-7.05-2.8-7.05-7.85v-7.21
			c0-5.05,2.88-7.85,7.13-7.85c4.41,0,7.29,2.8,7.29,7.85v4.89h-11.94v2.4c0,3.68,1.76,5.37,4.65,5.37c3.2,0,4.81-1.52,5.13-4.73
			L212.93,62.85L212.93,62.85z M200.67,54.92v2.56h9.45v-2.56c0-3.68-1.76-5.37-4.81-5.37C202.43,49.55,200.67,51.23,200.67,54.92z"
			/>
		<path id="XMLID_204_" class="st0" d="M217.01,62.13v-7.21c0-5.05,2.8-7.85,7.05-7.85c4.33,0,7.13,2.8,7.21,7.85h-2.48
			c-0.16-3.68-1.76-5.37-4.73-5.37c-2.8,0-4.49,1.68-4.49,5.37v7.21c0,3.68,1.68,5.37,4.49,5.37c2.96,0,4.65-1.68,4.81-5.37h2.48
			c-0.16,5.05-2.96,7.85-7.29,7.85C219.82,69.98,217.01,67.17,217.01,62.13z"/>
		<path id="XMLID_202_" class="st0" d="M233.12,67.33c2.56,0,3.04-3.52,3.36-7.93c0.24-4.09,0.32-7.69,0.4-11.78h11.3v21.95h-2.48
			V49.95h-6.41c-0.08,3.28-0.32,7.45-0.4,9.85c-0.4,6.65-1.84,9.93-5.77,9.93V67.33L233.12,67.33z"/>
		<path id="XMLID_199_" class="st0" d="M265.24,47.63v21.95h-2.48v-8.01h-3.36l-5.05,8.01h-2.96l5.29-8.17
			c-2.72-0.56-4.57-3.2-4.57-6.81c0-4.17,2.72-6.97,6.97-6.97L265.24,47.63L265.24,47.63z M262.76,49.95h-3.6
			c-2.8,0-4.41,1.68-4.41,4.57c0,2.96,1.44,4.65,4.17,4.65h3.85V49.95z"/>
		<path id="XMLID_196_" class="st0" d="M284.87,55.48v6.33c0,5.45-2.56,8.25-6.81,8.25c-2,0-3.93-0.8-5.13-2.48v9.53h-2.4V47.63h2
			l0.32,2.08c1.2-1.6,3.04-2.56,5.21-2.56C281.98,47.07,284.87,49.95,284.87,55.48z M282.3,55.48c0-4.33-1.76-6.09-4.89-6.09
			c-2.48,0-4.57,1.92-4.57,6.01v6.41c0,3.52,1.76,5.93,4.57,5.93c3.2,0,4.89-1.76,4.89-5.93V55.48z"/>
		<path id="XMLID_193_" class="st0" d="M289.03,41.54c0-1.2,0.8-2,2-2s2,0.8,2,2s-0.8,2-2,2S289.03,42.74,289.03,41.54z
			 M289.83,47.63h2.48v21.95h-2.48V47.63z"/>
		<path id="XMLID_189_" class="st0" d="M311.38,63.25c0,4.01-2.48,6.33-7.13,6.33h-6.41V47.63h5.77c4.25,0,6.73,2.24,6.73,5.85
			c0,1.52-0.88,3.28-2.48,4.41C310.02,58.84,311.38,61.09,311.38,63.25z M300.25,57h3.28c2.88,0,4.25-1.36,4.25-3.52
			c0-2.24-1.44-3.52-4.25-3.52h-3.28V57z M308.9,63.25c0-2.48-1.52-3.93-4.73-3.93h-3.93v7.85h3.93
			C307.38,67.25,308.9,65.81,308.9,63.25z"/>
	</g>
</g>
</svg>
