<?xml version="1.0" encoding="utf-8"?>
<!-- Generator: Adobe Illustrator 23.0.1, SVG Export Plug-In . SVG Version: 6.00 Build 0)  -->
<svg version="1.1" id="Layer_1" xmlns="http://www.w3.org/2000/svg" xmlns:xlink="http://www.w3.org/1999/xlink" x="0px" y="0px"
	 viewBox="0 0 46 46" style="enable-background:new 0 0 46 46;" xml:space="preserve">
<style type="text/css">
	.st0{fill:#6DCFF6;}
	.st1{fill:#FFFFFF;}
</style>
<g>
	<g>
		<path class="st0" d="M23,0C10.3,0,0,10.3,0,23s10.3,23,23,23s23-10.3,23-23S35.7,0,23,0L23,0z"/>
	</g>
	<path id="XMLID_237_" class="st1" d="M38.52,29.18l-7.31-4.22l7.44-12.97l0,0c0.02-0.04,0.04-0.08,0.04-0.1s0-0.02,0-0.04
		s0-0.04,0-0.04c0-0.02,0-0.02,0-0.04s0-0.02,0-0.04c0-0.02-0.02-0.06-0.02-0.08s0-0.02-0.02-0.04c-0.02-0.04-0.04-0.06-0.06-0.1
		l0,0l0,0c-0.02-0.02-0.04-0.04-0.08-0.06l-0.11-0.08c-0.06-0.04-0.11-0.06-0.19-0.06l0,0L7.67,11.28c-0.17,0-0.33,0.11-0.36,0.29
		c0,0.04-0.02,0.08-0.02,0.1v17.69c0,0.13,0.08,0.27,0.19,0.33l15.33,8.98c0.06,0.04,0.13,0.06,0.19,0.06
		c0.06,0,0.13-0.02,0.19-0.06c0.02-0.02,0.04-0.02,0.06-0.04c0.02,0,0.04-0.02,0.06-0.02l15.21-8.79c0.11-0.08,0.19-0.19,0.19-0.33
		S38.64,29.26,38.52,29.18z M30.54,24.58l-6.79-3.91l10.11-5.83l3.42-1.98L30.54,24.58z M37.01,12.13l-5.26,3.03l-8.77,5.06
		L9.07,12.07L37.01,12.13z M8.03,12.34l14.56,8.54V37.7L8.03,29.16V12.34z M23.36,21.34l6.79,3.91l-6.79,11.82V21.34z M24.15,37.26
		l6.68-11.63l6.73,3.87L24.15,37.26z"/>
</g>
</svg>
