<?xml version="1.0" encoding="utf-8"?>
<!-- Generator: Adobe Illustrator 23.0.1, SVG Export Plug-In . SVG Version: 6.00 Build 0)  -->
<svg version="1.1" id="Layer_1" xmlns="http://www.w3.org/2000/svg" xmlns:xlink="http://www.w3.org/1999/xlink" x="0px" y="0px"
	 viewBox="0 0 35 26.99" style="enable-background:new 0 0 35 26.99;" xml:space="preserve">
<style type="text/css">
	.st0{fill-rule:evenodd;clip-rule:evenodd;fill:#FFFFFF;}
</style>
<g>
	<g>
		<g>
			<path class="st0" d="M2.14,1.34v6.44l2.93-7.47L2.14,1.34z M0,2.16l2.03,5.63V1.34L0,2.16z M16.21,14.86l5.83,3.04L19,9.29
				L16.21,14.86z M31.62,3.93l1.85,5.41L35,0.31L31.62,3.93z M32.67,13.35l0.68-4.01l-2.71-0.56L32.67,13.35z M31.44,3.9l3.36-3.59
				l-2.93,1.07l-0.44,2.48l-0.01-0.04l-0.86,4.85l2.71,0.56L31.44,3.9z M30.55,8.78l-1.06,5.96l3.09-1.39L30.55,8.78z M23.51,21.78
				l1.68,4.7l3.15-5.1L23.51,21.78z M25.29,26.48l4.32-1.58l-1.17-3.52L25.29,26.48z M29.71,24.8l1.21-0.42l-2.38-3.1L29.71,24.8z
				 M28.34,21.28l-6.09-3.18l1.26,3.58L28.34,21.28z M28.34,21.18l1.15-6.44L22.25,18L28.34,21.18z M31.02,24.38l1.85-10.93
				l-4.24,7.83L31.02,24.38z M32.67,13.45l-3.09,1.39l-1.15,6.44L32.67,13.45z M19.21,9.39L22.25,18l3.22-5.35L19.21,9.39z
				 M18.09,6.1l1.12,3.18l4.48-1.99L18.09,6.1z M25.56,12.54L23.8,7.3l-4.48,1.99L25.56,12.54z M23.69,7.2l-2.43-7.21L18.09,6
				L23.69,7.2z M21.16-0.01l-4.7,1.69L17.98,6L21.16-0.01z M16.26,7.89l-0.16,6.97l2.8-5.57L16.26,7.89z M19,9.19L17.88,6
				l-1.52-4.33l0,6.11L19,9.19z M12.71,13.14L16,14.86l0.16-6.97L12.71,13.14z M5.16,16.32L9,26.99l3.6-6.79L5.16,16.32z
				 M12.71,25.68V20.2l-3.6,6.79L12.71,25.68z M12.6,20.1l0.01-6.75l-7.45,2.86L12.6,20.1z M12.71,19.99l3.3-5.03l-3.29-1.71
				L12.71,19.99z M9.13,11.38L5.17,0.32L2.24,7.79L9.13,11.38z M2.03,7.79l3.02,8.32l3.87-4.73L2.03,7.79z M9.03,11.38l-3.87,4.73
				l7.45-2.86L9.03,11.38z"/>
		</g>
	</g>
</g>
</svg>
